<svg xmlns="http://www.w3.org/2000/svg" viewBox="0 0 155 24" width="155" height="24" role="img" aria-label="Jyske Bank logo">
  <g fill="#005A43">
    <path d="M1.99 0v3.79h6.69c.09 3.88.09 6.85 0 10.17-.06 2.12-1.52 3.69-3.85 3.69-2.15 0-4.01-1.45-4.83-2.56v4.39c.76.88 2.72 1.99 5.34 1.99 4.42 0 7.89-3.25 7.8-7.93-.1-4.48-.07-8.39.03-13.54zM22.86 13.8l-3.73-9.47h-4.64c1.8 3.88 4.61 10.42 6.19 14.37l-2.46 5.31h4.71c2.21-5.4 6.09-14.37 8.49-19.67h-4.64l-3.92 9.47zM36.16 8.81c0-.88.92-1.42 2.08-1.42 1.23 0 2.46.54 3.79 1.58V5.21c-.92-.69-2.37-1.2-3.98-1.2-3.6 0-6.06 2.18-6.06 5.05 0 4.96 6.73 4.83 6.73 7.26 0 1.01-.88 1.61-2.27 1.61-1.8 0-3.51-1.2-4.74-2.49v4.26c1.14 1.04 2.68 1.77 5.12 1.77 3.57 0 6.28-2.18 6.28-5.21 0-5.46-6.95-5.05-6.95-7.45M60 4.33h-5.05c-1.26 1.96-3.38 4.99-4.96 7.11 0-4.11 0-8.31.06-11.44h-4.42c.09 5.78.09 15.38 0 21.16h4.42l-.06-7.96c1.77 2.4 4.11 5.78 5.53 7.96h5.24c-1.89-2.4-4.89-6.57-6.6-9.09 1.52-2.18 4.17-5.68 5.84-7.74"/>
    <path d="M64.32 10.74c.35-2.05 2.02-3.28 3.76-3.28 1.86 0 3.44 1.45 3.54 3.28zm3.86-6.73c-4.23 0-8.27 3.32-8.27 8.72s4.17 8.75 8.87 8.75c3.16 0 5.53-1.14 6.41-2.05v-4.26c-1.01 1.14-3.38 2.65-6.13 2.65s-4.48-1.83-4.8-3.82h11.81v-2.02c0-4.93-3.92-7.96-7.89-7.96M94.61 17.46h-3.69l-.03-5.43h3.76c1.83 0 3.06 1.11 3.06 2.75s-1.36 2.68-3.09 2.68M90.91 3.63h2.75c1.58 0 2.72.85 2.72 2.43 0 1.74-1.48 2.4-2.87 2.4h-2.62l.03-4.83zm6.95 6.29c1.2-.35 3-1.99 3-4.64 0-3.23-2.49-5.28-6.6-5.28h-7.8c.09 5.78.09 15.38 0 21.16h8.78c3.76 0 6.95-2.12 6.95-5.97 0-3.22-2.18-4.67-4.33-5.27M113.65 16.29c-.54.76-1.71 1.71-3.25 1.71-1.11 0-1.89-.54-1.89-1.55 0-.92.54-1.64 2.05-2.21l1.77-.66c.76-.28 1.23-.6 1.33-.73v3.44zm-2.4-12.28c-3.06 0-5.43 1.2-6.35 2.21v4.07c1.04-1.23 3.47-2.78 5.94-2.78 1.89 0 2.78.63 2.78 1.45 0 .76-.41 1.07-1.64 1.55l-3.38 1.26c-3.13 1.17-4.48 2.78-4.48 5.27s1.86 4.42 4.71 4.42c2.49 0 4.17-1.23 4.96-2.46v2.15h4.14c-.09-3.09-.09-8.27 0-11.37 0-3.57-2.12-5.78-6.66-5.78M130.16 4.01c-2.43 0-4.07 1.26-4.77 2.34V4.33h-4.17c.09 4.58.09 12.25 0 16.83h4.42c-.09-3.22-.09-8.34-.03-11.84.73-.82 1.8-1.55 3.03-1.55 1.74 0 2.84 1.04 2.84 3 .09 2.84.09 7.55 0 10.39h4.42c-.09-3-.09-8.05 0-11.05 0-3.47-2.18-6.09-5.75-6.09M154.54 21.16c-1.89-2.4-4.89-6.57-6.6-9.09 1.52-2.18 4.17-5.68 5.84-7.74h-5.05c-1.26 1.96-3.38 4.99-4.96 7.11 0-4.11 0-8.31.07-11.44h-4.42c.09 5.78.09 15.38 0 21.16h4.42l-.06-7.96c1.77 2.4 4.11 5.78 5.53 7.96h5.24z"/>
  </g>
</svg>
